<?xml version="1.0" encoding="UTF-8"?><svg id="Camada_1" xmlns="http://www.w3.org/2000/svg" viewBox="0 0 946.98 302.4"><defs><style>.cls-1{fill:#f7a805;}.cls-2{fill:#00838c;}</style></defs><path class="cls-2" d="m49.97,185.99h52.67c0,24.66,18.57,33.49,41.71,33.49s34.71-7,34.71-21.92-10.96-21.01-49.02-29.84c-43.53-10.65-72.76-21.61-72.76-65.45,0-41.4,36.23-59.98,82.5-59.98,59.37,0,84.33,28.62,84.33,66.37h-51.15c0-14.92-11.57-25.27-34.4-25.27-17.35,0-28.92,5.48-28.92,18.88s10.35,19.18,40.19,26.18c49.32,11.57,81.9,21.31,81.9,64.54s-31.66,68.5-89.2,68.5c-63.32,0-92.55-28.92-92.55-75.5"/><rect class="cls-2" x="254.07" y="103.48" width="49.62" height="154.96"/><path class="cls-2" d="m570.74,169.85v88.59h-49.62v-84.94c0-23.44-8.22-31.66-21.62-31.66s-21.92,9.13-21.92,31.97v84.64h-49.93v-84.94c0-23.44-7.92-31.66-21.31-31.66s-21.92,9.13-21.92,31.97v84.64h-49.93v-122.08l-4.57-32.88h47.49l4.26,20.4c9.74-15.53,24.66-23.14,43.84-23.14,22.22,0,36.84,9.13,44.75,26.49,9.74-17.35,25.88-26.49,47.19-26.49,37.75,0,53.28,24.05,53.28,69.11"/><path class="cls-2" d="m765.41,180.81c0,47.8-23.44,80.37-67.28,80.37-21.62,0-38.66-8.83-49.32-25.88l-4.87,23.14h-47.49l4.57-32.88V42.76h49.93v80.21c10.66-14.61,26.79-22.22,47.19-22.22,43.84,0,67.28,32.88,67.28,80.07m-50.23,0c0-24.66-11.57-38.97-31.97-38.97s-32.27,14.31-32.27,38.97,11.57,39.27,32.27,39.27,31.97-14,31.97-39.27"/><path class="cls-2" d="m883.44,228.76c2.74,1.52,4.89,3.61,6.46,6.26,1.57,2.65,2.35,5.57,2.35,8.75s-.79,6.03-2.35,8.68c-1.57,2.65-3.72,4.74-6.46,6.26-2.74,1.52-5.74,2.29-9.01,2.29s-6.27-.76-9.01-2.29c-2.74-1.52-4.89-3.61-6.46-6.26-1.57-2.65-2.35-5.54-2.35-8.68s.78-6.1,2.35-8.75c1.57-2.65,3.72-4.74,6.46-6.26,2.74-1.52,5.74-2.29,9.01-2.29s6.27.76,9.01,2.29m-2.15,26.47c2.05-1.15,3.66-2.73,4.84-4.74,1.17-2.01,1.76-4.25,1.76-6.73s-.59-4.78-1.76-6.79c-1.17-2.01-2.78-3.59-4.84-4.74-2.05-1.15-4.34-1.72-6.86-1.72s-4.81.57-6.86,1.72c-2.05,1.15-3.67,2.73-4.84,4.74-1.17,2.01-1.76,4.27-1.76,6.79s.59,4.71,1.76,6.73c1.17,2.01,2.78,3.59,4.84,4.74,2.05,1.15,4.34,1.72,6.86,1.72s4.8-.57,6.86-1.72m1.42-3.05h-5.37c-.13-.26-.23-.56-.3-.89-.06-.33-.12-.67-.16-1.03l-.13-1.86c-.05-.75-.21-1.26-.5-1.52-.29-.27-.78-.4-1.49-.4h-2.19v5.7h-5.17v-17.09h8.42c2.03,0,3.61.45,4.74,1.36,1.13.91,1.69,2.18,1.69,3.81,0,.84-.2,1.59-.6,2.25-.4.66-.97,1.19-1.72,1.59.75.4,1.26.91,1.52,1.52.27.62.42,1.41.46,2.39l.13,2.25c.04.97.26,1.61.66,1.92m-7.62-9.61c1.19,0,1.79-.55,1.79-1.66s-.6-1.66-1.79-1.66h-2.52v3.31h2.52Z"/><path class="cls-1" d="m814.26,35.24c-14.12,0-25.57,11.45-25.57,25.57s11.45,25.57,25.57,25.57,25.57-11.45,25.57-25.57-11.45-25.57-25.57-25.57"/><rect class="cls-1" x="253.73" y="43.9" width="49.97" height="42.47"/><path class="cls-2" d="m815.26,102.54c-9.73,0-18.72-3.21-25.97-8.61v164.52h49.62V95.53c-6.82,4.43-14.94,7.01-23.65,7.01"/></svg>